<svg width="98" height="52" viewBox="0 0 98 52" fill="none" xmlns="http://www.w3.org/2000/svg">
<path fill-rule="evenodd" clip-rule="evenodd" d="M36.5704 0.592592C36.0181 0.592592 35.5704 1.04031 35.5704 1.59259V5.86754C35.5704 6.41983 36.0181 6.86755 36.5704 6.86755H72.8973C83.0243 6.86755 90.9778 14.6642 90.9778 24.757C90.9778 25.0426 91.2093 25.2741 91.4948 25.2741H96.757C97.0426 25.2741 97.2741 25.0426 97.2741 24.757C97.2741 11.2678 86.4321 0.592592 72.8973 0.592592H36.5704Z" fill="#6B7B84" stroke="#80949F" stroke-width="0.5"/>
<path fill-rule="evenodd" clip-rule="evenodd" d="M7.1067 25.7124C7.1067 25.4703 6.91047 25.2741 6.66841 25.2741H1.16424C0.922181 25.2741 0.725952 25.4703 0.725952 25.7124C0.725952 39.3618 10.9492 50.6312 24.1686 51.3687L66.5102 51.4065C67.0629 51.407 67.5111 50.9591 67.5111 50.4065V45.8269C67.5111 45.2746 67.0634 44.8269 66.5111 44.8269H25.6264C15.3902 44.7986 7.1067 36.2832 7.1067 25.7124Z" fill="#6B7B84" stroke="#80949F" stroke-width="0.5"/>
<path fill-rule="evenodd" clip-rule="evenodd" d="M28.1415 39.7926C30.8803 39.7926 33.1616 39.2605 35.4149 38.1657L35.5704 38.0201V30.1857L34.7272 31.2651C33.1048 33.038 30.9259 34.0139 28.4607 34.0139C23.8691 34.0139 19.2575 31.046 19.2575 25.374C19.2575 21.0876 22.438 16.5322 28.2993 16.5322C29.4688 16.5322 32.313 16.8087 34.7231 19.3682L35.5704 20.4119V12.6129L35.4217 12.4655C33.1258 11.3149 30.7842 10.7556 28.1136 10.7556C23.5467 10.7556 19.982 11.9579 17.1438 14.4291C15.3434 15.9779 12.3408 19.4487 12.3408 25.2924C12.3408 29.6132 13.8793 32.9877 17.1668 35.9146C20.2251 38.5964 23.6162 39.7926 28.1415 39.7926Z" fill="#6B7B84"/>
<path d="M28.1415 39.7926C30.8803 39.7926 33.1616 39.2605 35.4149 38.1657L35.5704 38.0201V30.1857L34.7272 31.2651C33.1048 33.038 30.9259 34.0139 28.4607 34.0139C23.8691 34.0139 19.2575 31.046 19.2575 25.374C19.2575 21.0876 22.438 16.5322 28.2993 16.5322C29.4688 16.5322 32.313 16.8087 34.7231 19.3682L35.5704 20.4119V12.6129L35.4217 12.4655C33.1258 11.3149 30.7842 10.7556 28.1136 10.7556C23.5467 10.7556 19.982 11.9579 17.1438 14.4291C15.3434 15.9779 12.3408 19.4487 12.3408 25.2924C12.3408 29.6132 13.8793 32.9877 17.1668 35.9146C20.2251 38.5964 23.6162 39.7926 28.1415 39.7926" stroke="#80949F" stroke-width="0.5"/>
<path fill-rule="evenodd" clip-rule="evenodd" d="M47.9111 17.2889H49.2755C50.5269 17.2889 51.9533 17.3572 53.0328 18.093C53.56 18.4696 54.4445 19.3413 54.4445 20.9246C54.4445 22.0947 53.9274 23.1438 53.0734 23.7984C51.9783 24.5933 50.6768 24.5477 49.6309 24.5477H47.9111V17.2889ZM50.9768 29.818C54.2082 29.818 56.7376 28.886 58.4942 27.13C60.6549 24.9737 60.9778 22.0075 60.9778 20.4437C60.9778 18.7704 60.5812 15.5068 57.9211 13.1437C55.7406 11.233 53.4141 10.7556 50.1323 10.7556H41.3778V39.7926H48.0364V29.818H50.9768Z" fill="#6B7B84"/>
<path d="M47.9111 17.2889V17.0389H47.6611V17.2889H47.9111ZM53.0328 18.093L53.1782 17.8895L53.1737 17.8864L53.0328 18.093ZM53.0734 23.7984L53.2203 24.0008L53.2255 23.9968L53.0734 23.7984ZM47.9111 24.5477H47.6611V24.7977H47.9111V24.5477ZM58.4942 27.13L58.3176 26.953L58.3174 26.9532L58.4942 27.13ZM57.9211 13.1437L58.0871 12.9568L58.0858 12.9557L57.9211 13.1437ZM41.3778 10.7556V10.5056H41.1278V10.7556H41.3778ZM41.3778 39.7926H41.1278V40.0426H41.3778V39.7926ZM48.0364 39.7926V40.0426H48.2864V39.7926H48.0364ZM48.0364 29.818V29.568H47.7864V29.818H48.0364ZM47.9111 17.2889V17.5389H49.2755V17.2889V17.0389H47.9111V17.2889ZM49.2755 17.2889V17.5389C50.5326 17.5389 51.8839 17.6124 52.892 18.2996L53.0328 18.093L53.1737 17.8864C52.0227 17.1019 50.5212 17.0389 49.2755 17.0389V17.2889ZM53.0328 18.093L52.8875 18.2965C53.3752 18.6448 54.1945 19.4496 54.1945 20.9246H54.4445H54.6945C54.6945 19.233 53.7448 18.2944 53.1782 17.8896L53.0328 18.093ZM54.4445 20.9246H54.1945C54.1945 22.0206 53.7107 22.9949 52.9213 23.6L53.0734 23.7984L53.2255 23.9968C54.1441 23.2927 54.6945 22.1687 54.6945 20.9246H54.4445ZM53.0734 23.7984L52.9265 23.5961C51.9091 24.3346 50.6971 24.2977 49.6309 24.2977V24.5477V24.7977C50.6564 24.7977 52.0476 24.8519 53.2202 24.0007L53.0734 23.7984ZM49.6309 24.5477V24.2977H47.9111V24.5477V24.7977H49.6309V24.5477ZM47.9111 24.5477H48.1611V17.2889H47.9111H47.6611V24.5477H47.9111ZM50.9768 29.818V30.068C54.2567 30.068 56.8562 29.1209 58.6709 27.3068L58.4942 27.13L58.3174 26.9532C56.619 28.651 54.1598 29.568 50.9768 29.568V29.818ZM58.4942 27.13L58.6707 27.307C60.9028 25.0795 61.2278 22.0289 61.2278 20.4437H60.9778H60.7278C60.7278 21.9861 60.4069 24.868 58.3176 26.953L58.4942 27.13ZM60.9778 20.4437H61.2278C61.2278 18.7424 60.8262 15.39 58.0871 12.9568L57.9211 13.1437L57.755 13.3306C60.3362 15.6235 60.7278 18.7985 60.7278 20.4437H60.9778ZM57.9211 13.1437L58.0858 12.9557C55.8399 10.9876 53.4416 10.5056 50.1323 10.5056V10.7556V11.0056C53.3866 11.0056 55.6413 11.4784 57.7563 13.3317L57.9211 13.1437ZM50.1323 10.7556V10.5056H41.3778V10.7556V11.0056H50.1323V10.7556ZM41.3778 10.7556H41.1278V39.7926H41.3778H41.6278V10.7556H41.3778ZM41.3778 39.7926V40.0426H48.0364V39.7926V39.5426H41.3778V39.7926ZM48.0364 39.7926H48.2864V29.818H48.0364H47.7864V39.7926H48.0364ZM48.0364 29.818V30.068H50.9768V29.818V29.568H48.0364V29.818Z" fill="#80949F"/>
<path fill-rule="evenodd" clip-rule="evenodd" d="M80.9528 24.4688C79.5052 23.1862 77.4844 22.4427 75.1909 21.6715C73.5567 21.1028 72.6563 20.7896 72.056 20.2423C71.5823 19.8401 71.371 19.4035 71.371 18.8264C71.371 17.5624 72.2299 16.2115 74.6412 16.2115C76.2799 16.2115 77.652 16.9122 78.7195 18.2932L79.1433 18.8416L82.6595 14.3658L82.339 14.0447C80.1885 11.8926 77.3546 10.7556 74.1438 10.7556C67.6655 10.7556 64.7656 14.9701 64.7656 19.147C64.7656 21.3884 65.5649 23.1962 67.1365 24.5176C68.5435 25.7236 70.2594 26.3993 71.9052 26.9508L72.0913 27.0125C73.5528 27.4956 75.0644 27.9956 75.9672 28.8036C76.5953 29.3807 76.8752 30.0078 76.8752 30.8369C76.8752 32.737 75.3789 34.0139 73.1518 34.0139C71.3914 34.0139 69.0734 33.151 67.8469 30.7298L67.5262 30.0955L63.1556 34.1412L63.4133 34.5058C64.8078 36.4802 67.9543 39.7926 73.3592 39.7926C79.3189 39.7926 83.4815 35.961 83.4815 30.4753C83.4815 27.3376 82.1049 25.4754 80.9528 24.4688Z" fill="#6B7B84"/>
<path d="M80.9528 24.4688C79.5052 23.1862 77.4844 22.4427 75.1909 21.6715C73.5567 21.1028 72.6563 20.7896 72.056 20.2423C71.5823 19.8401 71.371 19.4035 71.371 18.8264C71.371 17.5624 72.2299 16.2115 74.6412 16.2115C76.2799 16.2115 77.652 16.9122 78.7195 18.2932L79.1433 18.8416L82.6595 14.3658L82.339 14.0447C80.1885 11.8926 77.3546 10.7556 74.1438 10.7556C67.6655 10.7556 64.7656 14.9701 64.7656 19.147C64.7656 21.3884 65.5649 23.1962 67.1365 24.5176C68.5435 25.7236 70.2594 26.3993 71.9052 26.9508L72.0913 27.0125C73.5528 27.4956 75.0644 27.9956 75.9672 28.8036C76.5953 29.3807 76.8752 30.0078 76.8752 30.8369C76.8752 32.737 75.3789 34.0139 73.1518 34.0139C71.3914 34.0139 69.0734 33.151 67.8469 30.7298L67.5262 30.0955L63.1556 34.1412L63.4133 34.5058C64.8078 36.4802 67.9543 39.7926 73.3592 39.7926C79.3189 39.7926 83.4815 35.961 83.4815 30.4753C83.4815 27.3376 82.1049 25.4754 80.9528 24.4688" stroke="#80949F" stroke-width="0.5"/>
</svg>
