<svg width="40" height="40" viewBox="0 0 40 40" fill="none" xmlns="http://www.w3.org/2000/svg">
<rect width="40" height="40" rx="20" fill="#FF3E79"/>
<path d="M24 26C24.5523 26 25 26.4477 25 27C25 27.5523 24.5523 28 24 28H12C11.4477 28 11 27.5523 11 27C11 26.4477 11.4477 26 12 26H24ZM20 19C20.5523 19 21 19.4477 21 20C21 20.5523 20.5523 21 20 21H12C11.4477 21 11 20.5523 11 20C11 19.4477 11.4477 19 12 19H20ZM28 12C28.5523 12 29 12.4477 29 13C29 13.5523 28.5523 14 28 14H12C11.4477 14 11 13.5523 11 13C11 12.4477 11.4477 12 12 12H28Z" fill="white"/>
</svg>
