<svg width="40" height="40" viewBox="0 0 40 40" fill="none" xmlns="http://www.w3.org/2000/svg">
<rect width="40" height="40" rx="20" fill="#FF3E79"/>
<path d="M27 10C27.5523 10 28 10.4477 28 11V28.5C27.1716 28.5 26.5001 29.1716 26.5 30H25.5C25.4999 29.1716 24.8284 28.5 24 28.5C23.1716 28.5 22.5001 29.1716 22.5 30H21.5C21.4999 29.1716 20.8284 28.5 20 28.5C19.1716 28.5 18.5001 29.1716 18.5 30H17.5C17.4999 29.1716 16.8284 28.5 16 28.5C15.1716 28.5 14.5001 29.1716 14.5 30H13.5C13.4999 29.1716 12.8284 28.5 12 28.5V11C12 10.4477 12.4477 10 13 10H27ZM19.8535 13.8799C16.9493 13.42 14.4954 15.826 14.8594 18.7109C15.0894 20.5322 16.5279 22.0473 18.3301 22.3828C19.4706 22.5935 20.5534 22.3439 21.416 21.7881L23.5254 23.8975C23.8993 24.2711 24.5131 24.2711 24.8965 23.8877C25.2701 23.5139 25.2701 22.9002 24.8965 22.5264L22.7871 20.4268C23.3238 19.5737 23.5825 18.5483 23.4004 17.4365C23.1032 15.644 21.6557 14.1675 19.8535 13.8799ZM19.0586 15.7061C20.3574 15.7061 21.412 16.7598 21.4121 18.0586C21.4121 19.3574 20.3574 20.4121 19.0586 20.4121C17.7599 20.412 16.7061 19.3573 16.7061 18.0586C16.7061 16.7599 17.76 15.7062 19.0586 15.7061Z" fill="white"/>
</svg>
