<svg width="8" height="11" viewBox="0 0 8 11" fill="none" xmlns="http://www.w3.org/2000/svg">
<path d="M6.50008 6.50008C6.77622 6.22393 7.22393 6.22393 7.50008 6.50008C7.77622 6.77622 7.77622 7.22393 7.50008 7.50008L4.70711 10.293C4.3166 10.6835 3.68355 10.6835 3.29304 10.293L0.500076 7.50008C0.223933 7.22393 0.223933 6.77622 0.500076 6.50008C0.776218 6.22393 1.22393 6.22393 1.50008 6.50008L4.00008 9.00008L6.50008 6.50008ZM6.50008 0.500076C6.77622 0.223933 7.22393 0.223933 7.50008 0.500076C7.77622 0.776218 7.77622 1.22393 7.50008 1.50008L4.70711 4.29304C4.3166 4.68347 3.68355 4.68347 3.29304 4.29304L0.500076 1.50008C0.223933 1.22393 0.223933 0.776218 0.500076 0.500076C0.776218 0.223933 1.22393 0.223933 1.50008 0.500076L4.00008 3.00008L6.50008 0.500076Z" fill="#41F6D7"/>
</svg>
